<svg id="Layer_1" data-name="Layer 1" xmlns="http://www.w3.org/2000/svg" viewBox="0 0 30 30"><defs><style>.cls-1{fill:#989795;}</style></defs><title>Untitled-1</title><path class="cls-1" d="M.42,13.08v3.84a1,1,0,0,0,.5.87l3.33,1.92a1,1,0,0,0,1,0l3.33-1.92a1,1,0,0,0,.5-.87V13.08a1,1,0,0,0-.5-.87L5.25,10.29a1,1,0,0,0-1,0L.92,12.21A1,1,0,0,0,.42,13.08Z"/><path class="cls-1" d="M10.67,13.08v3.84a1,1,0,0,0,.5.87l3.33,1.92a1,1,0,0,0,1,0l3.33-1.92a1,1,0,0,0,.5-.87V13.08a1,1,0,0,0-.5-.87L15.5,10.29a1,1,0,0,0-1,0l-3.33,1.92A1,1,0,0,0,10.67,13.08Z"/><path class="cls-1" d="M20.92,13.08v3.84a1,1,0,0,0,.5.87l3.33,1.92a1,1,0,0,0,1,0l3.33-1.92a1,1,0,0,0,.5-.87V13.08a1,1,0,0,0-.5-.87l-3.33-1.92a1,1,0,0,0-1,0l-3.33,1.92A1,1,0,0,0,20.92,13.08Z"/><path class="cls-1" d="M5.67,22.33v3.84a1,1,0,0,0,.5.87L9.5,29a1,1,0,0,0,1,0L13.83,27a1,1,0,0,0,.5-.87V22.33a1,1,0,0,0-.5-.87L10.5,19.54a1,1,0,0,0-1,0L6.17,21.46A1,1,0,0,0,5.67,22.33Z"/><path class="cls-1" d="M16.17,22.33v3.84a1,1,0,0,0,.5.87L20,29a1,1,0,0,0,1,0L24.33,27a1,1,0,0,0,.5-.87V22.33a1,1,0,0,0-.5-.87L21,19.54a1,1,0,0,0-1,0l-3.33,1.92A1,1,0,0,0,16.17,22.33Z"/><path class="cls-1" d="M16.42,3.83V7.67a1,1,0,0,0,.5.87l3.33,1.92a1,1,0,0,0,1,0l3.33-1.92a1,1,0,0,0,.5-.87V3.83a1,1,0,0,0-.5-.87L21.25,1a1,1,0,0,0-1,0L16.92,3A1,1,0,0,0,16.42,3.83Z"/><path class="cls-1" d="M5.92,3.83V7.67a1,1,0,0,0,.5.87l3.33,1.92a1,1,0,0,0,1,0l3.33-1.92a1,1,0,0,0,.5-.87V3.83a1,1,0,0,0-.5-.87L10.75,1a1,1,0,0,0-1,0L6.42,3A1,1,0,0,0,5.92,3.83Z"/></svg>